<svg width="603" height="197" viewBox="0 0 603 197" fill="none" xmlns="http://www.w3.org/2000/svg">
<g id="LogoMain">
<g id="radtoolbox">
<path d="M37.5742 95.1875C29.9701 95.2917 25.3346 98.3646 23.668 104.406L22.418 96.4375H8.82422L8.98047 173H24.293L24.1367 110.188C24.3451 109.25 24.918 108.729 25.8555 108.625H44.7617V95.1875H37.5742ZM81.4055 161.75H59.0617C58.0201 161.542 57.4471 160.969 57.343 160.031V140.812C57.5513 139.875 58.1242 139.354 59.0617 139.25H81.4055V161.75ZM68.1242 174.25C75.8326 174.146 80.4159 170.865 81.8742 164.406L83.1242 173H97.0305V115.031C97.0305 105.656 93.8534 99.875 87.4992 97.6875C84.5826 96.75 80.9367 96.2812 76.5617 96.2812H46.8742V109.25H79.6867C80.7284 109.458 81.3013 109.979 81.4055 110.812V128H62.0305C52.6555 128 46.718 130.396 44.218 135.188C42.8638 137.896 42.1867 141.49 42.1867 145.969V157.062C42.1867 165.708 45.2076 171.021 51.2492 173C53.7492 173.833 56.7701 174.25 60.3117 174.25H68.1242ZM269.267 108.156C270.309 108.365 270.882 108.938 270.986 109.875V159.562C270.777 160.604 270.204 161.177 269.267 161.281H246.923C245.882 161.073 245.309 160.5 245.204 159.562V109.875C245.413 108.833 245.986 108.26 246.923 108.156H269.267ZM229.736 155.031C229.736 164.51 233.173 170.396 240.048 172.688C243.069 173.729 246.819 174.25 251.298 174.25H264.892C275.621 174.25 282.288 171.125 284.892 164.875C285.934 162.167 286.454 158.885 286.454 155.031V114.406C286.454 104.927 283.017 99.0417 276.142 96.75C273.121 95.7083 269.371 95.1875 264.892 95.1875H251.298C240.569 95.1875 233.902 98.3125 231.298 104.562C230.257 107.271 229.736 110.552 229.736 114.406V155.031ZM336.848 108.156C337.89 108.365 338.463 108.938 338.567 109.875V159.562C338.359 160.604 337.786 161.177 336.848 161.281H314.504C313.463 161.073 312.89 160.5 312.786 159.562V109.875C312.994 108.833 313.567 108.26 314.504 108.156H336.848ZM297.317 155.031C297.317 164.51 300.754 170.396 307.629 172.688C310.65 173.729 314.4 174.25 318.879 174.25H332.473C343.202 174.25 349.869 171.125 352.473 164.875C353.515 162.167 354.036 158.885 354.036 155.031V114.406C354.036 104.927 350.598 99.0417 343.723 96.75C340.702 95.7083 336.952 95.1875 332.473 95.1875H318.879C308.15 95.1875 301.484 98.3125 298.879 104.562C297.838 107.271 297.317 110.552 297.317 114.406V155.031ZM513.47 108.156C514.511 108.365 515.084 108.938 515.188 109.875V159.562C514.98 160.604 514.407 161.177 513.47 161.281H491.126C490.084 161.073 489.511 160.5 489.407 159.562V109.875C489.615 108.833 490.188 108.26 491.126 108.156H513.47ZM473.938 155.031C473.938 164.51 477.376 170.396 484.251 172.688C487.272 173.729 491.022 174.25 495.501 174.25H509.095C519.824 174.25 526.49 171.125 529.095 164.875C530.136 162.167 530.657 158.885 530.657 155.031V114.406C530.657 104.927 527.22 99.0417 520.345 96.75C517.324 95.7083 513.574 95.1875 509.095 95.1875H495.501C484.772 95.1875 478.105 98.3125 475.501 104.562C474.459 107.271 473.938 110.552 473.938 114.406V155.031ZM549.176 173L561.832 142.375C562.249 141.542 562.77 141.073 563.395 140.969H571.051C571.78 141.177 572.301 141.698 572.613 142.531L585.738 173H601.988L590.582 147.844C587.77 141.385 585.374 137.375 583.395 135.812C582.353 135.188 581.311 134.667 580.27 134.25C582.77 132.792 585.217 129.198 587.613 123.469C587.926 122.74 588.238 122.01 588.551 121.281L599.02 96.4375H583.863L571.676 126.75C571.155 127.688 570.53 128.156 569.801 128.156H565.27C564.436 127.948 563.811 127.427 563.395 126.594L551.52 96.4375H535.895L546.207 121.281C548.811 127.844 551.259 131.958 553.551 133.625C553.863 133.833 554.124 133.99 554.332 134.094C551.52 135.135 549.072 137.896 546.988 142.375C546.363 143.625 545.53 145.448 544.488 147.844L533.238 173H549.176Z" fill="black"/>
<path d="M152.629 57.6436V88.918L130.412 88.7471C120.273 88.7471 113.835 91.3105 111.101 96.4375C109.506 99.3997 108.708 103.387 108.708 108.4V155.568C108.708 165.025 112.012 170.835 118.621 173C121.355 173.911 124.659 174.367 128.533 174.367H137.932C146.477 174.253 151.547 170.607 153.142 163.43L154.68 173H169.548V57.6436H152.629ZM152.629 158.815C152.401 159.955 151.832 160.581 150.92 160.695H127.165C126.026 160.467 125.399 159.841 125.286 158.815V104.128C125.513 102.989 126.14 102.362 127.165 102.248L152.629 102.59V158.815ZM225.521 89.2598H205.868V67.8975H189.12V89.2598H179.378V102.419H189.12V151.979C189.12 162.347 192.879 168.785 200.399 171.291C203.703 172.43 207.804 173 212.704 173H225.521V158.815H207.747C206.608 158.588 205.982 157.961 205.868 156.936V102.419H225.521V89.2598ZM385.211 173V57.6436H368.463V173H385.211ZM441.013 173.854C451.608 174.082 458.216 171.291 460.837 165.48C462.09 162.518 462.717 158.758 462.717 154.201V106.521C462.717 97.1781 459.527 91.4245 453.146 89.2598C450.412 88.3483 446.994 87.8926 442.892 87.8926H433.493C425.632 88.0065 420.733 91.0257 418.796 96.9502V57.6436H401.877V173L441.013 173.854ZM418.796 103.444C419.024 102.305 419.593 101.678 420.505 101.564H444.26C445.399 101.792 446.026 102.419 446.139 103.444V157.961C445.912 158.986 445.285 159.556 444.26 159.67L418.796 159.499V103.444Z" fill="#00AEE4"/>
</g>
<g id="Handle">
<rect id="Rectangle 1" x="153" y="40.9811" width="266" height="12.0189" rx="3" fill="#00AEE4"/>
<path id="Vector 6" d="M245 36V20C245 11.7157 251.716 5 260 5H312C320.284 5 327 11.7157 327 20V36" stroke="#00AEE4" stroke-width="10"/>
</g>
</g>
</svg>
