<svg width="334" height="185" viewBox="0 0 334 185" fill="none" xmlns="http://www.w3.org/2000/svg">
<g id="LogoSmall">
<g id="rdt.lbx">
<path d="M39.2537 86.219C31.6495 86.3232 27.0141 89.3961 25.3475 95.4377L24.0975 87.469H10.5037L10.66 164.031H25.9725L25.8162 101.219C26.0245 100.281 26.5975 99.7607 27.535 99.6565H46.4412V86.219H39.2537ZM174.826 164.031V144.72H158.591V164.031H174.826ZM278.496 164.031L291.153 133.406C291.569 132.573 292.09 132.104 292.715 132H300.371C301.1 132.209 301.621 132.729 301.934 133.563L315.059 164.031H331.309L319.903 138.875C317.09 132.417 314.694 128.406 312.715 126.844C311.673 126.219 310.632 125.698 309.59 125.281C312.09 123.823 314.538 120.229 316.934 114.5C317.246 113.771 317.559 113.042 317.871 112.313L328.34 87.469H313.184L300.996 117.781C300.475 118.719 299.85 119.188 299.121 119.188H294.59C293.757 118.979 293.132 118.459 292.715 117.625L280.84 87.469H265.215L275.528 112.313C278.132 118.875 280.58 122.99 282.871 124.656C283.184 124.865 283.444 125.021 283.653 125.125C280.84 126.167 278.392 128.927 276.309 133.406C275.684 134.656 274.85 136.479 273.809 138.875L262.559 164.031H278.496Z" fill="black"/>
<path d="M91.4963 48.675V79.9495L69.2795 79.7786C59.1395 79.7786 52.7023 82.342 49.968 87.469C48.3729 90.4312 47.5754 94.4189 47.5754 99.4319V146.6C47.5754 156.056 50.8794 161.867 57.4875 164.031C60.2219 164.943 63.5259 165.399 67.3996 165.399H76.799C85.3439 165.285 90.4139 161.639 92.009 154.461L93.5471 164.031H108.415V48.675H91.4963ZM91.4963 149.847C91.2684 150.986 90.6988 151.613 89.7873 151.727H66.0324C64.8931 151.499 64.2665 150.872 64.1525 149.847V95.1594C64.3804 94.0201 65.007 93.3935 66.0324 93.2795L91.4963 93.6213V149.847ZM157.388 80.2913H137.735V58.929H120.987V80.2913H111.245V93.4504H120.987V143.011C120.987 153.379 124.746 159.816 132.266 162.323C135.57 163.462 139.671 164.031 144.571 164.031H157.388V149.847H139.614C138.475 149.619 137.848 148.992 137.735 147.967V93.4504H157.388V80.2913ZM193.769 164.031V48.675H177.021V164.031H193.769ZM242.571 164.886C253.166 165.114 259.774 162.323 262.395 156.512C263.648 153.55 264.275 149.79 264.275 145.233V97.552C264.275 88.2096 261.085 82.456 254.704 80.2913C251.97 79.3798 248.552 78.9241 244.45 78.9241H235.051C227.19 79.038 222.291 82.0572 220.354 87.9817V48.675H203.435V164.031L242.571 164.886ZM220.354 94.4758C220.582 93.3365 221.151 92.7099 222.063 92.5959H245.818C246.957 92.8238 247.584 93.4504 247.697 94.4758V148.992C247.47 150.018 246.843 150.587 245.818 150.701L220.354 150.531V94.4758Z" fill="#00AEE4"/>
</g>
<g id="Handle">
<rect id="Rectangle 1" x="91" y="34.5159" width="130" height="11.5155" rx="3" fill="#00AEE4"/>
<path id="Vector 6" d="M126.38 32.7853V20C126.38 11.7157 133.095 5 141.38 5H170.62C178.905 5 185.62 11.7157 185.62 20V32.7853" stroke="#00AEE4" stroke-width="10"/>
</g>
</g>
</svg>
