<?xml version="1.0" encoding="UTF-8" standalone="no"?><!DOCTYPE svg PUBLIC "-//W3C//DTD SVG 1.1//EN" "http://www.w3.org/Graphics/SVG/1.1/DTD/svg11.dtd"><svg width="100%" height="100%" viewBox="0 0 4330 630" version="1.1" xmlns="http://www.w3.org/2000/svg" xmlns:xlink="http://www.w3.org/1999/xlink" xml:space="preserve" style="fill-rule:evenodd;clip-rule:evenodd;stroke-linejoin:round;stroke-miterlimit:2;"><path d="M404.981,225.833l0,-11.666c19.723,0 36.527,6.528 50.415,19.583c13.887,13.333 20.833,30.278 20.833,50.833l-0.012,195l-13.334,0l0.005,-75.833l-57.5,0l0,-11.667l57.5,0l0.008,-107.5c0,-16.944 -5.554,-30.972 -16.667,-42.083c-11.387,-11.111 -25.137,-16.667 -41.248,-16.667Z" style="fill:#f00;fill-rule:nonzero;"/><path d="M404.981,225.833l-4.167,0l0,4.167l4.166,0l0.001,-4.167Zm0,-11.666l0.001,-4.167l-4.167,0l0,4.167l4.166,0Zm50.415,19.583l2.887,-3.006l-0.033,-0.03l-2.854,3.036Zm20.821,245.833l0,4.167l4.166,0l0,-4.167l-4.166,0Zm-13.334,0l-4.166,0l0,4.167l4.166,0l0,-4.167Zm0.005,-75.833l4.166,0l0,-4.167l-4.166,0l0,4.167Zm-57.5,0l-4.167,0l-0.001,4.167l4.167,0l0,-4.167Zm0.001,-11.667l0,-4.166l-4.166,0l-0.001,4.166l4.167,0Zm57.5,0l0,4.167l4.166,0l0,-4.167l-4.166,0Zm-16.659,-149.583l2.946,-2.947l-0.033,-0.036l-2.913,2.983Zm-37.082,-16.667l0.001,-11.666l-8.333,0l-0.001,11.666l8.334,0Zm-4.167,-7.5c18.702,0 34.477,6.151 47.561,18.453l5.708,-6.072c-14.688,-13.809 -32.525,-20.714 -53.268,-20.714l-0.001,8.333Zm47.531,18.423c13.009,12.49 19.55,28.321 19.55,47.827l8.334,0c0,-21.604 -7.346,-39.662 -22.113,-53.839l-5.771,6.012Zm19.55,47.827l-0.012,195l8.333,0l0.013,-195l-8.334,0Zm4.155,190.834l-13.334,0l0,8.333l13.334,0l0,-8.333Zm-9.167,4.166l0.004,-75.833l-8.333,0l-0.004,75.833l8.333,0Zm-4.163,-80l-57.5,0l0,8.334l57.5,0l0,-8.334Zm-53.333,4.167l0.001,-11.667l-8.334,0l0,11.667l8.333,0Zm-4.166,-7.5l57.499,0l0,-8.333l-57.499,0l0,8.333Zm61.666,-4.167l0.008,-107.5l-8.333,0l-0.008,107.5l8.333,0Zm0.008,-107.5c0,-17.953 -5.929,-33.072 -17.887,-45.029l-5.892,5.892c10.263,10.265 15.446,23.202 15.446,39.137l8.333,0Zm-17.92,-45.065c-12.18,-11.881 -26.98,-17.851 -44.161,-17.851l-0.001,8.333c15.041,0 27.741,5.141 38.341,15.483l5.821,-5.965Z" style="fill:#f00;fill-rule:nonzero;"/><path d="M145.309,290c-7.222,0 -13.611,2.361 -19.166,7.083c-5.556,4.722 -8.334,10.556 -8.334,17.5c0,6.945 3.056,13.334 9.167,19.167c6.389,5.833 13.889,11.25 22.5,16.25c8.889,4.722 17.778,9.861 26.667,15.417c8.889,5.555 16.389,12.638 22.5,21.25c6.389,8.611 9.583,18.472 9.583,29.583c0,16.388 -6.25,30.417 -18.75,42.083c-12.222,11.388 -27.083,17.084 -44.583,17.084c-11.111,0 -21.528,-2.363 -31.25,-7.084c-9.445,-5 -16.389,-11.529 -20.834,-19.583l0,-20c10.556,23.333 27.5,35 50.834,35c14.444,0 26.527,-4.446 36.25,-13.333c10,-8.888 15,-18.75 15,-29.584c0,-11.111 -3.195,-20.416 -9.584,-27.916c-6.111,-7.5 -13.611,-13.889 -22.5,-19.167c-8.889,-5.278 -17.777,-10.417 -26.666,-15.417c-8.611,-5.278 -16.111,-11.528 -22.5,-18.75c-6.111,-7.5 -9.167,-16.111 -9.167,-25.833c0,-10 3.889,-18.333 11.666,-25c8.056,-6.945 18.334,-10.417 30.834,-10.417c12.5,0 23.194,4.862 32.083,14.584l0,17.083c-8.889,-13.333 -20.139,-20 -33.75,-20Zm600.149,-6.25l0,187.083l-13.333,0l0,-187.083l13.333,0Zm-6.666,-45.833c-8.054,0 -12.084,-3.75 -12.084,-11.25c0,-7.5 4.03,-11.25 12.084,-11.25c8.054,0 12.083,3.75 12.083,11.25c0,7.5 -4.029,11.25 -12.083,11.25Zm299.891,225l0,11.666c-19.725,0 -36.529,-6.529 -50.416,-19.583c-13.892,-13.333 -20.834,-30.279 -20.834,-50.833l0,-245.834l13.334,0l0,245.834c0,16.945 5.554,30.971 16.666,42.083c11.388,11.113 25.138,16.667 41.25,16.667Zm199.988,7.916l0,-312.5l13.333,0l0,170.834c7.5,-15.278 19.167,-27.5 35,-36.667c16.113,-9.167 32.779,-13.75 50,-13.75c27.5,0 50.833,9.722 70,29.167c19.446,19.166 29.167,42.222 29.167,69.166c0,26.945 -9.721,50.138 -29.167,69.584c-19.167,19.166 -42.5,28.75 -70,28.75c-16.667,0 -32.917,-4.446 -48.75,-13.334c-15.833,-9.166 -27.917,-21.387 -36.25,-36.666l0,45.416l-13.333,0Zm12.5,-93.333c0,23.333 8.475,43.613 25.416,60.833c17.226,16.946 37.5,25.417 60.834,25.417c23.612,0 43.75,-8.471 60.417,-25.417c16.666,-17.22 25,-37.5 25,-60.833c0,-23.611 -8.471,-44.028 -25.417,-61.25c-16.667,-17.222 -36.667,-25.833 -60,-25.833c-23.334,0 -43.609,8.75 -60.834,26.25c-16.941,17.222 -25.416,37.5 -25.416,60.833Zm500.975,-68.75c-12.221,-12.222 -25.696,-18.333 -40.417,-18.333c-14.721,0 -27.779,5.555 -39.167,16.666c-11.112,11.112 -16.666,24.028 -16.666,38.75l0,125l-13.334,0l0,-187.5l13.334,0l0,27.917c5,-9.445 12.779,-17.222 23.333,-23.333c10.554,-6.112 22.363,-9.167 35.417,-9.167c13.054,0 25.554,4.445 37.5,13.333l0,16.667Zm352.771,-25.417l13.333,0l0,187.5l-13.333,0l0,-37.916c-14.167,28.333 -38.334,42.5 -72.5,42.5c-23.334,0 -42.917,-8.054 -58.75,-24.167c-15.834,-16.112 -23.75,-35.695 -23.75,-58.75l0,-109.167l13.333,0l0,109.167c0,19.167 6.667,35.833 20,50c13.612,14.167 30,21.25 49.167,21.25c19.166,0 35.975,-7.083 50.416,-21.25c14.725,-14.167 22.084,-30.833 22.084,-50l0,-109.167Zm316.629,192.917l-3.75,0c-26.667,0 -49.584,-9.862 -68.75,-29.583c-19.167,-19.721 -28.75,-42.778 -28.75,-69.167c0,-26.667 9.721,-49.583 29.166,-68.75c19.446,-19.445 43.334,-29.167 71.667,-29.167c28.333,0 52.5,10.695 72.5,32.084l0,21.25c-8.612,-12.778 -19.583,-22.917 -32.917,-30.417c-13.054,-7.5 -26.804,-11.25 -41.249,-11.25c-23.055,0 -43.196,8.611 -60.417,25.833c-16.946,16.945 -25.417,37.222 -25.417,60.834c0,23.611 8.471,44.029 25.417,61.25c17.221,16.945 37.362,25.416 60.416,25.416c14.446,0 28.196,-3.75 41.25,-11.25c13.334,-7.5 24.305,-17.779 32.917,-30.833l0,21.667c-19.446,21.387 -43.471,32.083 -72.083,32.083Zm287.329,-5.417l-13.333,0l0,-312.083l13.333,0l0,160.833c13.887,-27.222 37.917,-40.833 72.083,-40.833c23.334,0 42.917,8.055 58.75,24.167c16.109,16.111 24.167,35.694 24.167,58.75l0,109.166l-13.333,0l0,-109.166c0,-19.445 -6.809,-36.112 -20.417,-50c-13.613,-14.167 -30,-21.25 -49.167,-21.25c-19.166,0 -35.975,7.083 -50.416,21.25c-14.446,14.166 -21.667,30.833 -21.667,50l0,109.166Zm371.112,2.917c-9.445,0 -14.166,-4.304 -14.166,-12.917c0,-8.612 4.721,-12.916 14.166,-12.916c9.721,0 14.584,4.304 14.584,12.916c0,8.613 -4.863,12.917 -14.584,12.917Zm407.78,-315.417l0,312.5l-13.334,0l0,-45.416c-8.333,15.279 -20.416,27.5 -36.25,36.666c-15.833,8.888 -32.083,13.334 -48.75,13.334c-27.5,0 -50.971,-9.584 -70.416,-28.75c-19.167,-19.446 -28.75,-42.639 -28.75,-69.584c0,-26.944 9.583,-50 28.75,-69.166c19.445,-19.445 42.916,-29.167 70.416,-29.167c17.221,0 33.75,4.583 49.584,13.75c16.112,9.167 27.916,21.389 35.416,36.667l0,-170.834l13.334,0Zm-184.167,219.167c0,23.333 8.333,43.613 25,60.833c16.667,16.946 36.667,25.417 60,25.417c23.612,0 43.887,-8.471 60.833,-25.417c17.221,-17.22 25.834,-37.5 25.834,-60.833c0,-23.333 -8.613,-43.611 -25.834,-60.833c-16.946,-17.5 -37.083,-26.25 -60.416,-26.25c-23.334,0 -43.471,8.611 -60.417,25.833c-16.667,17.222 -25,37.639 -25,61.25Zm494.725,98.333l-3.75,0c-26.392,0 -49.446,-9.862 -69.167,-29.583c-19.446,-20 -29.166,-43.195 -29.166,-69.583c0,-26.389 9.72,-49.167 29.166,-68.334c19.442,-19.444 43.471,-29.166 72.084,-29.166c28.608,0 53.191,11.388 73.75,34.166l-130.834,129.167c18.054,14.446 35.417,21.667 52.084,21.667c16.666,0 31.525,-3.75 44.583,-11.25c13.333,-7.779 24.304,-18.054 32.917,-30.834l0,21.25c-19.725,21.667 -43.613,32.5 -71.667,32.5Zm-4.583,-185c-21.946,0 -41.53,8.612 -58.75,25.834c-16.946,16.944 -25.417,36.528 -25.417,58.75c0,22.222 7.358,41.666 22.083,58.333l121.25,-120.417c-17.225,-15 -36.946,-22.5 -59.166,-22.5Zm441.716,-7.5l12.084,0l-92.088,192.917l-92.5,-192.917l14.583,0l79.167,164.584l78.754,-164.584Z" style="fill:#f00;fill-rule:nonzero;"/><path d="M126.143,297.083l-2.699,-3.174l2.699,3.174Zm0.833,36.667l-2.877,3.014l0.068,0.063l2.809,-3.077Zm22.5,16.25l-2.092,3.603l0.068,0.04l0.069,0.037l1.955,-3.68Zm26.667,15.417l2.208,-3.534l-2.208,3.534Zm22.5,21.25l-3.398,2.411l0.025,0.036l0.026,0.035l3.346,-2.482Zm-9.166,71.666l2.84,3.05l0.003,-0.004l-2.843,-3.046Zm-75.834,10l-1.949,3.684l0.129,0.066l1.82,-3.75Zm-20.833,-19.583l-4.167,0l0,1.075l0.519,0.938l3.648,-2.013Zm0,-20l3.796,-1.717l-7.963,1.717l4.167,0Zm87.083,21.667l-2.768,-3.113l-0.043,0.038l2.811,3.075Zm5.417,-57.5l-3.23,2.632l0.058,0.07l3.172,-2.702Zm-22.5,-19.167l-2.127,3.583l2.127,-3.583Zm-26.667,-15.417l-2.177,3.553l0.067,0.041l0.068,0.038l2.042,-3.632Zm-22.5,-18.75l-3.23,2.632l0.054,0.066l0.056,0.063l3.12,-2.761Zm2.5,-50.833l2.712,3.164l0.009,-0.008l-2.721,-3.156Zm62.917,4.167l4.167,0l0,-1.618l-1.092,-1.194l-3.075,2.812Zm0,17.083l-3.467,2.311l7.634,11.451l0,-13.762l-4.167,0Zm-33.75,-24.167c-8.221,0 -15.564,2.72 -21.865,8.076l5.397,6.349c4.81,-4.088 10.245,-6.091 16.468,-6.091l0,-8.334Zm-21.865,8.076c-6.434,5.468 -9.802,12.439 -9.802,20.674l8.334,0c0,-5.653 2.188,-10.349 6.865,-14.325l-5.397,-6.349Zm-9.802,20.674c0,8.324 3.714,15.744 10.457,22.181l5.754,-6.028c-5.479,-5.23 -7.877,-10.587 -7.877,-16.153l-8.334,0Zm10.525,22.244c6.638,6.061 14.386,11.649 23.217,16.776l4.184,-7.206c-8.391,-4.873 -15.643,-10.119 -21.783,-15.724l-5.618,6.154Zm23.354,16.853c8.799,4.674 17.604,9.764 26.413,15.27l4.417,-7.067c-8.969,-5.605 -17.942,-10.793 -26.92,-15.563l-3.91,7.36Zm26.413,15.27c8.419,5.262 15.516,11.963 21.311,20.128l6.795,-4.823c-6.427,-9.056 -14.33,-16.522 -23.689,-22.372l-4.417,7.067Zm21.362,20.199c5.836,7.866 8.763,16.849 8.763,27.101l8.333,0c0,-11.97 -3.461,-22.71 -10.403,-32.066l-6.693,4.965Zm8.763,27.101c0,15.179 -5.729,28.121 -17.426,39.038l5.686,6.091c13.303,-12.416 20.073,-27.529 20.073,-45.129l-8.333,0Zm-17.424,39.033c-11.411,10.634 -25.241,15.967 -41.743,15.967l0,8.333c18.5,0 34.391,-6.058 47.424,-18.2l-5.681,-6.1Zm-41.743,15.967c-10.498,0 -20.29,-2.225 -29.429,-6.667l-3.641,7.5c10.306,5.005 21.347,7.5 33.07,7.5l0,-8.333Zm-29.3,-6.6c-8.846,-4.683 -15.142,-10.675 -19.135,-17.912l-7.296,4.025c4.896,8.875 12.489,15.937 22.532,21.254l3.899,-7.367Zm-18.616,-15.9l0,-20l-8.334,0l0,20l8.334,0Zm-7.963,-18.283c5.514,12.191 12.825,21.608 22.058,27.966c9.258,6.371 20.178,9.484 32.571,9.484l0,-8.334c-10.94,0 -20.158,-2.72 -27.845,-8.016c-7.711,-5.309 -14.15,-13.392 -19.192,-24.534l-7.592,3.434Zm54.629,37.45c15.377,0 28.495,-4.763 39.062,-14.425l-5.623,-6.15c-8.877,8.116 -19.926,12.241 -33.439,12.241l0,8.334Zm39.019,-14.388c10.663,-9.475 16.398,-20.4 16.398,-32.696l-8.333,0c0,9.371 -4.265,18.171 -13.601,26.471l5.536,6.225Zm16.398,-32.696c0,-11.966 -3.464,-22.268 -10.578,-30.618l-6.344,5.404c5.665,6.649 8.589,14.959 8.589,25.214l8.333,0Zm-10.519,-30.548c-6.441,-7.905 -14.323,-14.607 -23.603,-20.118l-4.255,7.166c8.497,5.045 15.615,11.12 21.397,18.216l6.461,-5.264Zm-23.603,-20.118c-8.917,-5.294 -17.834,-10.449 -26.752,-15.465l-4.085,7.263c8.86,4.984 17.721,10.106 26.582,15.368l4.255,-7.166Zm-26.617,-15.386c-8.276,-5.073 -15.454,-11.06 -21.557,-17.958l-6.241,5.521c6.675,7.546 14.497,14.059 23.443,19.542l4.355,-7.105Zm-21.447,-17.83c-5.503,-6.752 -8.231,-14.433 -8.231,-23.201l-8.333,0c0,10.676 3.383,20.218 10.103,28.465l6.461,-5.264Zm-8.231,-23.201c0,-8.75 3.332,-15.939 10.212,-21.836l-5.423,-6.328c-8.676,7.437 -13.122,16.914 -13.122,28.164l8.333,0Zm10.221,-21.844c7.17,-6.181 16.427,-9.406 28.113,-9.406l0,-8.333c-13.314,0 -24.613,3.719 -33.554,11.427l5.441,6.312Zm28.113,-9.406c11.261,0 20.861,4.317 29.008,13.228l6.15,-5.623c-9.63,-10.533 -21.419,-15.938 -35.158,-15.938l0,8.333Zm27.916,10.417l0,17.083l8.334,0l0,-17.083l-8.334,0Zm7.634,14.772c-9.503,-14.255 -21.949,-21.856 -37.217,-21.856l0,8.334c11.955,0 22.009,5.733 30.283,18.144l6.934,-4.622Zm562.932,-23.939l4.167,0l0,-4.167l-4.167,0l0,4.167Zm0,187.083l0,4.167l4.167,0l0,-4.167l-4.167,0Zm-13.333,0l-4.167,0l0,4.167l4.167,0l0,-4.167Zm0,-187.083l0,-4.167l-4.167,0l0,4.167l4.167,0Zm9.167,0l0,187.083l8.333,0l0,-187.083l-8.333,0Zm4.166,182.917l-13.333,0l0,8.333l13.333,0l0,-8.333Zm-9.166,4.166l0,-187.083l-8.334,0l0,187.083l8.334,0Zm-4.167,-182.916l13.333,0l0,-8.334l-13.333,0l0,8.334Zm6.667,-54.167c-3.455,0 -5.271,-0.81 -6.221,-1.695c-0.896,-0.833 -1.696,-2.36 -1.696,-5.388l-8.333,0c0,4.471 1.216,8.569 4.35,11.487c3.075,2.865 7.3,3.929 11.9,3.929l0,-8.333Zm-7.917,-7.083c0,-3.029 0.8,-4.556 1.696,-5.388c0.95,-0.885 2.766,-1.696 6.221,-1.696l0,-8.333c-4.6,0 -8.825,1.065 -11.9,3.93c-3.134,2.917 -4.35,7.015 -4.35,11.487l8.333,0Zm7.917,-7.084c3.458,0 5.275,0.811 6.225,1.696c0.891,0.832 1.691,2.359 1.691,5.388l8.334,0c0,-4.472 -1.213,-8.57 -4.346,-11.487c-3.079,-2.865 -7.304,-3.93 -11.904,-3.93l0,8.333Zm7.916,7.084c0,3.028 -0.8,4.555 -1.691,5.388c-0.95,0.885 -2.767,1.695 -6.225,1.695l0,8.333c4.6,0 8.825,-1.064 11.904,-3.929c3.133,-2.918 4.346,-7.016 4.346,-11.487l-8.334,0Zm291.975,236.25l4.167,0l0,-4.167l-4.167,0l0,4.167Zm0,11.666l0,4.167l4.167,0l0,-4.167l-4.167,0Zm-50.416,-19.583l-2.888,3.004l0.033,0.034l2.855,-3.038Zm-20.834,-296.667l0,-4.166l-4.166,0l0,4.166l4.166,0Zm13.334,0l4.166,0l0,-4.166l-4.166,0l0,4.166Zm16.666,287.917l-2.95,2.946l0.038,0.037l2.912,-2.983Zm37.084,16.667l0,11.666l8.333,0l0,-11.666l-8.333,0Zm4.166,7.5c-18.704,0 -34.479,-6.15 -47.562,-18.454l-5.709,6.075c14.688,13.808 32.53,20.712 53.271,20.712l0,-8.333Zm-47.533,-18.421c-13.008,-12.492 -19.55,-28.321 -19.55,-47.829l-8.333,0c0,21.604 7.345,39.662 22.112,53.837l5.771,-6.008Zm-19.55,-47.829l0,-245.834l-8.333,0l0,245.834l8.333,0Zm-4.167,-241.667l13.334,0l0,-8.333l-13.334,0l0,8.333Zm9.167,-4.167l0,245.834l8.333,0l0,-245.834l-8.333,0Zm0,245.834c0,17.954 5.929,33.071 17.883,45.029l5.896,-5.892c-10.267,-10.266 -15.446,-23.204 -15.446,-39.137l-8.333,0Zm17.921,45.066c12.179,11.88 26.979,17.85 44.162,17.85l0,-8.333c-15.041,0 -27.741,-5.142 -38.341,-15.483l-5.821,5.966Zm244.15,21.6l-4.167,0l0,4.167l4.167,0l0,-4.167Zm0,-312.5l0,-4.166l-4.167,0l0,4.166l4.167,0Zm13.333,0l4.167,0l0,-4.166l-4.167,0l0,4.166Zm0,170.834l-4.167,0l7.909,1.836l-3.742,-1.836Zm35,-36.667l-2.058,-3.622l-0.029,0.016l2.087,3.606Zm120,15.417l-2.967,2.925l0.042,0.042l2.925,-2.967Zm0,138.75l-2.946,-2.946l2.946,2.946Zm-118.75,15.416l-2.087,3.609l0.05,0.025l2.037,-3.634Zm-36.25,-36.666l3.658,-1.996l-7.825,1.996l4.167,0Zm0,45.416l0,4.167l4.167,0l0,-4.167l-4.167,0Zm24.583,-32.5l-2.97,2.921l0.05,0.05l2.92,-2.971Zm121.25,0l2.971,2.921l0.025,-0.025l-2.996,-2.896Zm-0.416,-122.083l-2.992,2.898l0.021,0.024l2.971,-2.922Zm-120.834,0.417l-2.966,-2.923l-0.004,0.001l2.97,2.922Zm-33.75,154.166l0,-312.5l-8.333,0l0,312.5l8.333,0Zm-4.166,-308.333l13.333,0l0,-8.333l-13.333,0l0,8.333Zm9.166,-4.167l0,170.834l8.334,0l0,-170.834l-8.334,0Zm7.909,172.67c7.108,-14.481 18.171,-26.111 33.346,-34.897l-4.175,-7.212c-16.492,9.548 -28.763,22.362 -36.65,38.436l7.479,3.673Zm33.321,-34.881c15.533,-8.838 31.491,-13.205 47.937,-13.205l0,-8.334c-18,0 -35.371,4.8 -52.058,14.295l4.121,7.244Zm47.937,-13.205c26.396,0 48.658,9.281 67.033,27.925l5.934,-5.85c-19.954,-20.246 -44.359,-30.409 -72.967,-30.409l0,8.334Zm67.075,27.967c18.663,18.396 27.925,40.387 27.925,66.199l8.333,0c0,-28.076 -10.179,-52.196 -30.408,-72.134l-5.85,5.935Zm27.925,66.199c0,25.815 -9.262,47.955 -27.946,66.638l5.892,5.892c20.208,-20.209 30.387,-44.455 30.387,-72.53l-8.333,0Zm-27.946,66.638c-18.371,18.371 -40.641,27.529 -67.054,27.529l0,8.333c28.588,0 52.988,-10.008 72.946,-29.97l-5.892,-5.892Zm-67.054,27.529c-15.887,0 -31.442,-4.229 -46.708,-12.8l-4.079,7.267c16.396,9.208 33.345,13.866 50.787,13.866l0,-8.333Zm-46.662,-12.771c-15.209,-8.804 -26.729,-20.487 -34.68,-35.058l-7.316,3.992c8.721,15.983 21.362,28.745 37.821,38.275l4.175,-7.209Zm-42.504,-33.062l0,45.416l8.333,0l0,-45.416l-8.333,0Zm4.166,41.25l-13.333,0l0,8.333l13.333,0l0,-8.333Zm-5,-89.167c0,24.469 8.934,45.783 26.613,63.754l5.941,-5.841c-16.208,-16.475 -24.22,-35.715 -24.22,-57.913l-8.334,0Zm26.663,63.804c17.971,17.679 39.287,26.613 63.754,26.613l0,-8.334c-22.196,0 -41.438,-8.012 -57.908,-24.22l-5.846,5.941Zm63.754,26.613c24.737,0 45.946,-8.925 63.387,-26.663l-5.941,-5.841c-15.888,16.154 -34.959,24.17 -57.446,24.17l0,8.334Zm63.412,-26.688c17.396,-17.975 26.171,-39.282 26.171,-63.729l-8.333,0c0,22.22 -7.888,41.467 -23.825,57.938l5.987,5.791Zm26.171,-63.729c0,-24.732 -8.921,-46.191 -26.612,-64.172l-5.942,5.844c16.2,16.463 24.221,35.838 24.221,58.328l8.333,0Zm-26.587,-64.147c-17.429,-18.009 -38.5,-27.103 -62.996,-27.103l0,8.333c22.171,0 41.1,8.129 57.008,24.565l5.988,-5.795Zm-62.996,-27.103c-24.513,0 -45.842,9.245 -63.8,27.494l5.937,5.845c16.484,-16.75 35.709,-25.006 57.863,-25.006l0,-8.333Zm-63.804,27.495c-17.679,17.97 -26.613,39.286 -26.613,63.755l8.334,0c0,-22.197 8.012,-41.437 24.22,-57.911l-5.941,-5.844Zm478.529,-4.995l-2.946,2.946l7.113,7.113l0,-10.059l-4.167,0Zm-79.583,-1.667l-2.913,-2.982l-0.033,0.036l2.946,2.946Zm-16.667,163.75l0,4.167l4.167,0l0,-4.167l-4.167,0Zm-13.333,0l-4.167,0l0,4.167l4.167,0l0,-4.167Zm0,-187.5l0,-4.166l-4.167,0l0,4.166l4.167,0Zm13.333,0l4.167,0l0,-4.166l-4.167,0l0,4.166Zm0,27.917l-4.167,0l7.85,1.95l-3.683,-1.95Zm23.333,-23.333l2.088,3.606l-2.088,-3.606Zm72.917,4.166l4.167,0l0,-2.093l-1.68,-1.249l-2.487,3.342Zm2.946,13.721c-12.859,-12.857 -27.346,-19.554 -43.363,-19.554l0,8.333c13.425,0 25.884,5.526 37.471,17.113l5.892,-5.892Zm-43.363,-19.554c-15.904,0 -29.979,6.048 -42.075,17.851l5.817,5.965c10.679,-10.42 22.717,-15.483 36.258,-15.483l0,-8.333Zm-42.112,17.887c-11.834,11.834 -17.888,25.789 -17.888,41.696l8.334,0c0,-13.537 5.058,-25.415 15.445,-35.803l-5.891,-5.893Zm-17.888,41.696l0,125l8.334,0l0,-125l-8.334,0Zm4.167,120.834l-13.333,0l0,8.333l13.333,0l0,-8.333Zm-9.167,4.166l0,-187.5l-8.333,0l0,187.5l8.333,0Zm-4.166,-183.333l13.333,0l0,-8.333l-13.333,0l0,8.333Zm9.166,-4.167l0,27.917l8.334,0l0,-27.917l-8.334,0Zm7.85,29.867c4.584,-8.66 11.759,-15.901 21.738,-21.677l-4.175,-7.212c-11.134,6.446 -19.513,14.761 -24.929,24.989l7.366,3.9Zm21.738,-21.677c9.875,-5.718 20.954,-8.606 33.329,-8.606l0,-8.334c-13.738,0 -26.271,3.223 -37.504,9.728l4.175,7.212Zm33.329,-8.606c12.037,0 23.679,4.077 35.012,12.509l4.975,-6.685c-12.558,-9.346 -25.912,-14.158 -39.987,-14.158l0,8.334Zm33.333,9.166l0,16.667l8.334,0l0,-16.667l-8.334,0Zm356.938,-8.75l0,-4.166l-4.167,0l0,4.166l4.167,0Zm13.333,0l4.167,0l0,-4.166l-4.167,0l0,4.166Zm0,187.5l0,4.167l4.167,0l0,-4.167l-4.167,0Zm-13.333,0l-4.167,0l0,4.167l4.167,0l0,-4.167Zm0,-37.916l4.166,0l-7.891,-1.863l3.725,1.863Zm-131.25,18.333l2.975,-2.921l-2.975,2.921Zm-23.75,-167.917l0,-4.166l-4.167,0l0,4.166l4.167,0Zm13.333,0l4.167,0l0,-4.166l-4.167,0l0,4.166Zm20,159.167l-3.033,2.854l0.029,0.034l3.004,-2.888Zm99.583,0l-2.887,-3.004l-0.029,0.029l2.916,2.975Zm22.084,-155l13.333,0l0,-8.333l-13.333,0l0,8.333Zm9.166,-4.167l0,187.5l8.334,0l0,-187.5l-8.334,0Zm4.167,183.334l-13.333,0l0,8.333l13.333,0l0,-8.333Zm-9.167,4.166l0,-37.916l-8.333,0l0,37.916l8.333,0Zm-7.891,-39.779c-6.771,13.542 -15.834,23.521 -27.129,30.142c-11.317,6.637 -25.138,10.054 -41.646,10.054l0,8.333c17.662,0 33.008,-3.666 45.858,-11.195c12.867,-7.546 22.975,-18.817 30.371,-33.609l-7.454,-3.725Zm-68.775,40.196c-22.254,0 -40.754,-7.637 -55.775,-22.921l-5.946,5.842c16.646,16.937 37.312,25.412 61.721,25.412l0,-8.333Zm-55.775,-22.921c-15.05,-15.312 -22.559,-33.841 -22.559,-55.829l-8.333,0c0,24.123 8.329,44.763 24.946,61.671l5.946,-5.842Zm-22.559,-55.829l0,-109.167l-8.333,0l0,109.167l8.333,0Zm-4.166,-105l13.333,0l0,-8.333l-13.333,0l0,8.333Zm9.166,-4.167l0,109.167l8.334,0l0,-109.167l-8.334,0Zm0,109.167c0,20.246 7.088,37.929 21.134,52.854l6.071,-5.708c-12.621,-13.408 -18.871,-29.058 -18.871,-47.146l-8.334,0Zm21.163,52.888c14.375,14.962 31.842,22.529 52.171,22.529l0,-8.334c-18,0 -33.313,-6.6 -46.159,-19.97l-6.012,5.775Zm52.171,22.529c20.325,0 38.162,-7.559 53.337,-22.442l-5.837,-5.95c-13.713,13.45 -29.488,20.058 -47.5,20.058l0,8.334Zm53.308,-22.413c15.479,-14.896 23.358,-32.624 23.358,-53.004l-8.333,0c0,17.953 -6.837,33.558 -20.804,46.996l5.779,6.008Zm23.358,-53.004l0,-109.167l-8.333,0l0,109.167l8.333,0Zm239.963,54.167l-2.988,2.904l2.988,-2.904Zm0.417,-137.917l2.925,2.968l0.02,-0.022l-2.945,-2.946Zm144.166,2.917l4.167,0l0,-1.645l-1.121,-1.201l-3.046,2.846Zm0,21.25l-3.454,2.328l7.621,11.31l0,-13.638l-4.167,0Zm-32.916,-30.417l-2.075,3.613l0.033,0.019l2.042,-3.632Zm-101.667,14.583l2.946,2.947l-2.946,-2.947Zm0,122.084l-2.971,2.921l0.05,0.05l2.921,-2.971Zm101.667,14.166l-2.042,-3.633l-0.033,0.021l2.075,3.612Zm32.916,-30.833l4.167,0l0,-13.885l-7.646,11.589l3.479,2.296Zm0,21.667l3.084,2.804l1.083,-1.192l0,-1.612l-4.167,0Zm-72.083,27.916l-3.75,0l0,8.334l3.75,0l0,-8.334Zm-3.75,0c-25.5,0 -47.35,-9.379 -65.763,-28.32l-5.975,5.808c19.925,20.5 43.909,30.846 71.738,30.846l0,-8.334Zm-65.763,-28.32c-18.445,-18.98 -27.57,-41.008 -27.57,-66.263l-8.334,0c0,27.523 10.042,51.608 29.929,72.071l5.975,-5.808Zm-27.57,-66.263c0,-25.522 9.254,-47.378 27.925,-65.782l-5.85,-5.935c-20.217,19.928 -30.409,43.905 -30.409,71.717l8.334,0Zm27.945,-65.804c18.638,-18.637 41.455,-27.946 68.721,-27.946l0,-8.333c-29.4,0 -54.362,10.135 -74.612,30.387l5.891,5.892Zm68.721,-27.946c27.138,0 50.217,10.184 69.459,30.763l6.087,-5.692c-20.758,-22.2 -46.017,-33.404 -75.546,-33.404l0,8.333Zm68.334,27.917l0,21.25l8.333,0l0,-21.25l-8.333,0Zm7.62,18.921c-8.97,-13.312 -20.425,-23.899 -34.329,-31.72l-4.083,7.264c12.762,7.179 23.254,16.87 31.504,29.113l6.908,-4.657Zm-34.295,-31.701c-13.659,-7.847 -28.121,-11.804 -43.325,-11.804l0,8.334c13.683,0 26.725,3.543 39.175,10.696l4.15,-7.226Zm-43.325,-11.804c-24.23,0 -45.409,9.1 -63.363,27.054l5.892,5.893c16.491,-16.49 35.587,-24.613 57.471,-24.613l0,-8.334Zm-63.363,27.054c-17.712,17.713 -26.637,39.045 -26.637,63.78l8.333,0c0,-22.488 8.021,-41.711 24.196,-57.887l-5.892,-5.893Zm-26.637,63.78c0,24.732 8.92,46.191 26.612,64.171l5.942,-5.842c-16.196,-16.463 -24.221,-35.84 -24.221,-58.329l-8.333,0Zm26.662,64.221c17.958,17.67 39.133,26.612 63.338,26.612l0,-8.333c-21.905,0 -41.009,-8 -57.496,-24.221l-5.842,5.942Zm63.338,26.612c15.204,0 29.666,-3.958 43.325,-11.804l-4.15,-7.225c-12.45,7.154 -25.492,10.696 -39.175,10.696l0,8.333Zm43.291,-11.783c13.925,-7.834 25.388,-18.575 34.354,-32.171l-6.958,-4.592c-8.254,12.517 -18.737,22.329 -31.479,29.496l4.083,7.267Zm26.709,-34.467l0,21.667l8.333,0l0,-21.667l-8.333,0Zm1.083,18.863c-18.663,20.533 -41.575,30.72 -69,30.72l0,8.334c29.8,0 54.942,-11.2 75.167,-33.446l-6.167,-5.608Zm218.329,29.47l0,4.167l4.167,0l0,-4.167l-4.167,0Zm-13.333,0l-4.167,0l0,4.167l4.167,0l0,-4.167Zm0,-312.083l0,-4.167l-4.167,0l0,4.167l4.167,0Zm13.333,0l4.167,0l0,-4.167l-4.167,0l0,4.167Zm0,160.833l-4.167,0l7.875,1.894l-3.708,-1.894Zm130.833,-16.666l-2.975,2.921l0.03,0.025l2.945,-2.946Zm24.167,167.916l0,4.167l4.167,0l0,-4.167l-4.167,0Zm-13.333,0l-4.167,0l0,4.167l4.167,0l0,-4.167Zm-20.417,-159.166l-3.004,2.887l0.025,0.029l2.979,-2.916Zm-121.25,155l-13.333,0l0,8.333l13.333,0l0,-8.333Zm-9.167,4.166l0,-312.083l-8.333,0l0,312.083l8.333,0Zm-4.166,-307.916l13.333,0l0,-8.334l-13.333,0l0,8.334Zm9.166,-4.167l0,160.833l8.334,0l0,-160.833l-8.334,0Zm7.875,162.727c6.617,-12.964 15.555,-22.532 26.784,-28.893c11.254,-6.376 25.058,-9.667 41.591,-9.667l0,-8.334c-17.637,0 -32.929,3.515 -45.7,10.75c-12.8,7.25 -22.82,18.099 -30.095,32.357l7.42,3.787Zm68.375,-38.56c22.255,0 40.755,7.635 55.775,22.92l5.946,-5.841c-16.646,-16.937 -37.312,-25.413 -61.721,-25.413l0,8.334Zm55.805,22.946c15.316,15.319 22.945,33.838 22.945,55.804l8.334,0c0,-24.146 -8.488,-44.794 -25.388,-61.697l-5.891,5.893Zm22.945,55.804l0,109.166l8.334,0l0,-109.166l-8.334,0Zm4.167,105l-13.333,0l0,8.333l13.333,0l0,-8.333Zm-9.167,4.166l0,-109.166l-8.333,0l0,109.166l8.333,0Zm0,-109.166c0,-20.535 -7.233,-38.249 -21.608,-52.917l-5.954,5.833c12.85,13.11 19.229,28.73 19.229,47.084l8.333,0Zm-21.579,-52.887c-14.375,-14.962 -31.841,-22.53 -52.171,-22.53l0,8.333c18,0 33.313,6.598 46.163,19.97l6.008,-5.773Zm-52.171,-22.53c-20.325,0 -38.158,7.558 -53.337,22.442l5.837,5.949c13.713,-13.449 29.488,-20.058 47.5,-20.058l0,-8.333Zm-53.337,22.442c-15.192,14.902 -22.913,32.621 -22.913,52.975l8.334,0c0,-17.98 6.721,-33.594 20.416,-47.026l-5.837,-5.949Zm-22.913,52.975l0,109.166l8.334,0l0,-109.166l-8.334,0Zm375.28,107.916c-4.171,0 -6.521,-0.958 -7.817,-2.141c-1.225,-1.117 -2.183,-3.05 -2.183,-6.609l-8.334,0c0,5.05 1.404,9.575 4.9,12.767c3.425,3.121 8.159,4.317 13.434,4.317l0,-8.334Zm-10,-8.75c0,-3.558 0.958,-5.491 2.183,-6.608c1.296,-1.183 3.646,-2.142 7.817,-2.142l0,-8.333c-5.275,0 -10.009,1.196 -13.434,4.317c-3.496,3.191 -4.9,7.716 -4.9,12.766l8.334,0Zm10,-8.75c4.333,0 6.808,0.971 8.175,2.184c1.27,1.125 2.241,3.041 2.241,6.566l8.334,0c0,-5.087 -1.459,-9.625 -5.05,-12.808c-3.496,-3.092 -8.313,-4.275 -13.7,-4.275l0,8.333Zm10.416,8.75c0,3.525 -0.971,5.442 -2.241,6.567c-1.367,1.213 -3.842,2.183 -8.175,2.183l0,8.334c5.387,0 10.204,-1.184 13.7,-4.275c3.591,-3.184 5.05,-7.721 5.05,-12.809l-8.334,0Zm397.363,-302.5l4.166,0l0,-4.166l-4.166,0l0,4.166Zm0,312.5l0,4.167l4.166,0l0,-4.167l-4.166,0Zm-13.334,0l-4.166,0l0,4.167l4.166,0l0,-4.167Zm0,-45.416l4.167,0l-7.825,-1.996l3.658,1.996Zm-36.25,36.666l2.042,3.634l0.046,-0.029l-2.088,-3.605Zm-119.166,-15.416l-2.967,2.925l0.042,0.041l2.925,-2.966Zm0,-138.75l-2.946,-2.947l2.946,2.947Zm120,-15.417l-2.088,3.606l0.029,0.016l2.059,-3.622Zm35.416,36.667l-3.741,1.836l7.908,-1.836l-4.167,0Zm0,-170.834l0,-4.166l-4.166,0l0,4.166l4.166,0Zm-145.833,280l-2.996,2.896l0.025,0.025l2.971,-2.921Zm120.833,0l2.946,2.946l-2.946,-2.946Zm0,-121.666l-2.991,2.898l0.021,0.024l0.025,0.024l2.945,-2.946Zm-120.833,-0.417l-2.971,-2.922l-0.025,0.025l2.996,2.897Zm155,-157.917l0,312.5l8.333,0l0,-312.5l-8.333,0Zm4.167,308.334l-13.334,0l0,8.333l13.334,0l0,-8.333Zm-9.167,4.166l0,-45.416l-8.333,0l0,45.416l8.333,0Zm-7.825,-47.412c-7.946,14.571 -19.471,26.254 -34.679,35.058l4.175,7.209c16.458,-9.53 29.104,-22.292 37.821,-38.275l-7.317,-3.992Zm-34.629,35.029c-15.271,8.571 -30.821,12.8 -46.713,12.8l0,8.333c17.446,0 34.392,-4.658 50.792,-13.866l-4.079,-7.267Zm-46.713,12.8c-26.412,0 -48.833,-9.158 -67.491,-27.55l-5.85,5.933c20.229,19.942 44.754,29.95 73.341,29.95l0,-8.333Zm-67.45,-27.508c-18.408,-18.675 -27.55,-40.825 -27.55,-66.659l-8.333,0c0,28.056 10.025,52.296 29.95,72.509l5.933,-5.85Zm-27.55,-66.659c0,-25.832 9.138,-47.83 27.53,-66.22l-5.892,-5.893c-19.942,19.943 -29.971,44.056 -29.971,72.113l8.333,0Zm27.53,-66.22c18.662,-18.663 41.075,-27.946 67.47,-27.946l0,-8.334c-28.604,0 -53.137,10.162 -73.362,30.387l5.892,5.893Zm67.47,-27.946c16.442,0 32.255,4.366 47.496,13.189l4.175,-7.212c-16.425,-9.51 -33.671,-14.311 -51.671,-14.311l0,8.334Zm47.525,13.205c15.45,8.791 26.638,20.42 33.734,34.881l7.483,-3.673c-7.904,-16.095 -20.329,-28.91 -37.096,-38.452l-4.121,7.244Zm41.642,33.045l0,-170.834l-8.333,0l0,170.834l8.333,0Zm-4.167,-166.667l13.334,0l0,-8.333l-13.334,0l0,8.333Zm-175,215c0,24.447 8.775,45.754 26.171,63.729l5.992,-5.791c-15.938,-16.471 -23.829,-35.718 -23.829,-57.938l-8.334,0Zm26.196,63.754c17.434,17.725 38.496,26.663 62.971,26.663l0,-8.334c-22.192,0 -41.129,-8.008 -57.029,-24.17l-5.942,5.841Zm62.971,26.663c24.733,0 46.067,-8.925 63.779,-26.638l-5.891,-5.891c-16.175,16.175 -35.4,24.195 -57.888,24.195l0,8.334Zm63.779,-26.638c17.967,-17.966 27.054,-39.288 27.054,-63.779l-8.333,0c0,22.175 -8.133,41.408 -24.612,57.888l5.891,5.891Zm27.054,-63.779c0,-24.491 -9.087,-45.814 -27.054,-63.78l-5.891,5.893c16.479,16.479 24.612,35.712 24.612,57.887l8.333,0Zm-27.008,-63.732c-17.687,-18.27 -38.892,-27.518 -63.408,-27.518l0,8.333c22.15,0 41.225,8.253 57.425,24.982l5.983,-5.797Zm-63.408,-27.518c-24.492,0 -45.692,9.091 -63.388,27.078l5.942,5.844c16.192,-16.457 35.275,-24.589 57.446,-24.589l0,-8.333Zm-63.413,27.103c-17.404,17.986 -26.171,39.437 -26.171,64.147l8.334,0c0,-22.512 7.9,-41.894 23.829,-58.352l-5.992,-5.795Zm399.804,132.897l-2.987,2.904l0.042,0.042l2.945,-2.946Zm0,-137.917l2.925,2.968l0.021,-0.021l-2.946,-2.947Zm145.834,5l2.925,2.965l2.837,-2.798l-2.671,-2.958l-3.091,2.791Zm-130.834,129.167l-2.929,-2.967l-3.333,3.292l3.658,2.929l2.604,-3.254Zm96.667,10.417l2.075,3.612l0.025,-0.012l-2.1,-3.6Zm32.917,-30.834l4.166,0l0,-13.638l-7.625,11.309l3.459,2.329Zm0,21.25l3.079,2.805l1.087,-1.192l0,-1.613l-4.166,0Zm-135,-126.666l2.946,2.946l-2.946,-2.946Zm-3.334,117.083l-3.125,2.758l2.925,3.313l3.134,-3.113l-2.934,-2.958Zm121.25,-120.417l2.934,2.957l3.179,-3.157l-3.379,-2.942l-2.734,3.142Zm-54.583,158.334l-3.75,0l0,8.333l3.75,0l0,-8.333Zm-3.75,0c-25.217,0 -47.233,-9.371 -66.221,-28.363l-5.892,5.892c20.455,20.454 44.55,30.804 72.113,30.804l0,-8.333Zm-66.179,-28.321c-18.738,-19.271 -27.988,-41.442 -27.988,-66.679l-8.333,0c0,27.54 10.192,51.758 30.346,72.487l5.975,-5.808Zm-27.988,-66.679c0,-25.231 9.242,-46.952 27.925,-65.366l-5.85,-5.935c-20.208,19.919 -30.408,43.754 -30.408,71.301l8.333,0Zm27.946,-65.387c18.629,-18.629 41.579,-27.947 69.138,-27.947l0,-8.333c-29.667,0 -54.771,10.127 -75.03,30.387l5.892,5.893Zm69.138,-27.947c27.337,0 50.825,10.818 70.654,32.792l6.187,-5.583c-21.279,-23.582 -46.958,-35.542 -76.841,-35.542l0,8.333Zm70.82,27.035l-130.833,129.165l5.854,5.934l130.834,-129.169l-5.855,-5.93Zm-130.508,135.386c18.513,14.809 36.767,22.579 54.688,22.579l0,-8.333c-15.413,0 -31.884,-6.675 -49.484,-20.754l-5.204,6.508Zm54.688,22.579c17.312,0 32.904,-3.904 46.658,-11.804l-4.15,-7.225c-12.358,7.1 -26.492,10.696 -42.508,10.696l0,8.333Zm46.683,-11.816c13.871,-8.096 25.308,-18.804 34.271,-32.104l-6.913,-4.659c-8.258,12.259 -18.766,22.1 -31.558,29.563l4.2,7.2Zm26.65,-34.434l0,21.25l8.333,0l0,-21.25l-8.333,0Zm1.083,18.446c-18.971,20.842 -41.758,31.138 -68.583,31.138l0,8.333c29.283,0 54.275,-11.371 74.746,-33.862l-6.163,-5.609Zm-73.166,-153.862c-23.18,0 -43.788,9.144 -61.696,27.053l5.891,5.893c16.534,-16.535 35.092,-24.613 55.805,-24.613l0,-8.333Zm-61.696,27.053c-17.659,17.659 -26.638,38.277 -26.638,61.697l8.334,0c0,-21.025 7.962,-39.573 24.195,-55.804l-5.891,-5.893Zm-26.638,61.697c0,23.239 7.734,43.662 23.125,61.091l6.246,-5.516c-14.05,-15.906 -21.037,-34.37 -21.037,-55.575l-8.334,0Zm29.184,61.291l121.25,-120.418l-5.871,-5.913l-121.25,120.415l5.871,5.916Zm121.05,-126.517c-17.955,-15.64 -38.642,-23.524 -61.9,-23.524l0,8.333c21.183,0 39.941,7.116 56.429,21.475l5.471,-6.284Zm379.816,-26.858l0,-4.166l-2.625,0l-1.125,2.368l3.75,1.798Zm12.084,0l3.75,1.795l2.833,-5.961l-6.583,0l0,4.166Zm-92.088,192.917l-3.754,1.8l3.762,7.854l3.755,-7.858l-3.763,-1.796Zm-92.5,-192.917l0,-4.166l-6.617,0l2.863,5.968l3.754,-1.802Zm14.583,0l3.759,-1.806l-1.138,-2.36l-2.621,0l0,4.166Zm79.167,164.584l-3.754,1.804l3.767,7.829l3.745,-7.833l-3.758,-1.8Zm78.754,-160.417l12.084,0l0,-8.333l-12.084,0l0,8.333Zm8.334,-5.962l-92.096,192.916l7.521,3.592l92.075,-192.918l-7.5,-3.59Zm-84.58,192.912l-92.5,-192.918l-7.512,3.603l92.5,192.915l7.512,-3.6Zm-96.258,-186.95l14.583,0l0,-8.333l-14.583,0l0,8.333Zm10.829,-2.36l79.167,164.581l7.512,-3.608l-79.166,-164.586l-7.513,3.613Zm86.68,164.577l78.745,-164.585l-7.5,-3.597l-78.762,164.582l7.516,3.6Z" style="fill:#f00;fill-rule:nonzero;"/></svg>